<?xml version="1.0" encoding="UTF-8"?>
<svg width="180px" height="32px" viewBox="0 0 180 32" version="1.1" xmlns="http://www.w3.org/2000/svg" xmlns:xlink="http://www.w3.org/1999/xlink">
    <!-- Generator: sketchtool 58 (101010) - https://sketch.com -->
    <title>D673CB38-A775-486E-B65C-75BF6E131D56</title>
    <desc>Created with sketchtool.</desc>
    <g id="Page-1" stroke="none" stroke-width="1" fill="none" fill-rule="evenodd">
        <g id="DARWIN-Interactive" transform="translate(-222.000000, -44.000000)" fill="#00FF78" fill-rule="nonzero">
            <g id="HEADER" transform="translate(222.000000, 40.000000)">
                <path d="M136.300264,4 L140.967753,11.9915419 L145.890396,4 L159.892863,27.9732159 L159.903,27.973 L145.903084,4 L155.488987,4 L160.152,11.986 L165.07207,4 L169.73815,11.9901322 L167.693,15.312 L169.739559,11.9915419 L169.742379,11.9915419 L165.07489,4 L174.660793,4 L179.328282,11.9915419 L179.329692,11.9915419 L174.405639,19.9830837 L164.824,19.984 L169.490044,27.9746256 L169.481,27.974 L164.561762,35.9675771 L154.97163,35.9675771 L150.302731,27.9746256 L150.301,27.974 L145.380088,35.9675771 L135.789956,35.9675771 L121.787489,11.9915419 L126.710132,4 L140.712599,27.9732159 L140.715,27.973 L126.714361,4 L136.300264,4 Z M17.6253744,8.13603524 L17.6253744,31.8188546 L13.138326,31.8188546 L13.138326,30.0355947 C11.7266814,31.4392276 9.81448064,32.223382 7.82378855,32.2150448 C3.69762115,32.2150448 1.24344979e-14,28.8472247 1.24344979e-14,23.7568282 C1.24344979e-14,18.6664317 3.69762115,15.3127753 7.82378855,15.3127753 C9.51032186,15.3253884 11.1455487,15.8942491 12.4757709,16.9311013 L12.4757709,8.13603524 L17.6253744,8.13603524 Z M27.4889868,15.3127085 C29.4796789,15.3043713 31.3918796,16.0885258 32.8035242,17.4921586 L32.8035242,15.7088987 L37.2933921,15.7088987 L37.2933921,28.187489 L38.2801762,31.8188546 L33.6,31.8188546 L33.0361233,29.8044053 C31.6043633,31.3466416 29.5933629,32.2205452 27.4889868,32.2150044 C23.3628194,32.2150044 19.6651982,28.8472247 19.6651982,23.7568282 C19.6651982,18.6664317 23.3670485,15.3127085 27.4889868,15.3127085 Z M46.1800881,15.7088987 L46.1800881,18.3506608 C47.1372687,16.4687225 48.2946256,15.7088987 50.637533,15.7088987 L51.5608811,15.7088987 L51.5608811,20.0014097 L50.8673128,20.0014097 C48.6555066,20.0014097 47.3684581,20.7274009 46.6762996,22.2132159 L46.6762996,31.8188546 L41.5281057,31.8188546 L41.5281057,15.7088987 L46.1800881,15.7088987 Z M59.3578855,15.7088987 L61.304,24.588 L63.7152423,15.7088987 L68.4687225,15.7088987 L70.845,24.588 L72.7922467,15.7088987 L78.2054626,15.7088987 L73.2546256,31.8188546 L68.5335683,31.8188546 L66.0581498,22.6417621 L63.6489868,31.8188546 L58.8955066,31.8188546 L53.9432599,15.7088987 L59.3578855,15.7088987 Z M85.7374449,15.7088987 L85.7374449,31.8188546 L80.5878414,31.8188546 L80.5878414,15.7088987 L85.7374449,15.7088987 Z M99.6031718,15.3127753 C103.399471,15.3127753 105.87489,17.8882819 105.87489,21.8819383 L105.87489,31.8188546 L100.728106,31.8188546 L100.728106,22.674185 C100.728106,20.6611454 99.6722467,19.6052863 97.9228194,19.6052863 C96.1733921,19.6052863 95.1161233,20.6611454 95.1161233,22.674185 L95.1161233,31.8188546 L89.9665198,31.8188546 L89.9665198,15.7088987 L94.6185022,15.7088987 L94.6185022,17.6246696 C95.7081938,16.1712775 97.4576211,15.3127753 99.6031718,15.3127753 Z M150.192,27.785 L150.301,27.973 L150.302731,27.9732159 L150.192,27.785 Z M136.042291,4.45110132 L127.49674,4.45110132 L140.969163,27.5235242 L149.516123,27.5235242 L136.042291,4.45110132 Z M155.222555,4.45110132 L146.677004,4.45110132 L160.152247,27.5235242 L168.697797,27.5235242 L155.222555,4.45110132 Z M8.81339207,20.0338326 C6.73268722,20.0338326 5.14819383,21.5196476 5.14819383,23.7638767 C5.14819383,26.0081057 6.73268722,27.4939207 8.81339207,27.4939207 C10.7940088,27.4939207 12.3785022,26.0743612 12.4785903,23.9288106 L12.4785903,23.7638767 C12.4785903,21.5196476 10.8940969,20.0338326 8.81339207,20.0338326 Z M28.4828194,20.0296035 C26.4035242,20.0296035 24.8176211,21.5154185 24.8176211,23.7596476 C24.8176211,26.0038767 26.4021145,27.4897011 28.4828194,27.4897011 C30.4634361,27.4939207 32.0479295,26.0743612 32.1480176,23.9288106 L32.1480176,23.5947137 C32.0479295,21.4801762 30.4563877,20.0296035 28.4828194,20.0296035 Z M85.7374449,8.13603524 L85.7374449,12.8711894 L80.5878414,12.8711894 L80.5878414,8.13603524 L85.7374449,8.13603524 Z M174.402819,4.45110132 L165.857269,4.45110132 L169.998943,11.5404405 L178.544493,11.5404405 L174.402819,4.45110132 Z" id="logo"></path>
            </g>
        </g>
    </g>
</svg>