<?xml version="1.0" encoding="utf-8"?>
<!-- Generator: Adobe Illustrator 23.0.1, SVG Export Plug-In . SVG Version: 6.00 Build 0)  -->
<svg version="1.1" id="Camada_1" xmlns="http://www.w3.org/2000/svg" xmlns:xlink="http://www.w3.org/1999/xlink" x="0px" y="0px"
	 viewBox="0 0 226.08 226.08" style="enable-background:new 0 0 226.08 226.08;" xml:space="preserve">
<style type="text/css">
	.st0{fill:#273039;}
	.st1{fill:#E4E5E6;}
	.st2{fill:#F2F2F2;}
</style>
<g>
	<g>
		<path class="st0" d="M228.74,114.39c0,36.93-0.05,73.85,0.09,110.78c0.01,3.05-0.61,3.66-3.66,3.66
			c-74.19-0.11-148.38-0.11-222.58,0c-3.04,0-3.66-0.61-3.66-3.66c0.11-74.19,0.11-148.38,0-222.58c0-3.04,0.61-3.66,3.66-3.66
			c74.19,0.11,148.38,0.11,222.58,0c3.04,0,3.67,0.61,3.66,3.66C228.7,39.86,228.74,77.13,228.74,114.39z M173.97,134.95
			c0,1.36,0,2.72,0,4.08c0.03,8.39,3.08,11.26,11.4,10.75c6.36-0.39,8.44-4.11,7.69-13.67c-0.48-6.06-5.11-2.56-7.83-3.31
			c-1.37-0.38-3.32-0.24-3.42,1.95c-0.11,2.29,1.74,2,3.25,2.15c1.27,0.13,3.18-0.75,3.66,0.77c0.47,1.49,0.53,3.72-0.28,4.89
			c-1.93,2.76-5.22,1.67-8.01,1.74c-1.88,0.05-2.01-1.45-2.02-2.88c-0.01-3.57-0.15-7.15,0.05-10.72c0.1-1.82-1.27-4.89,1.52-5.15
			c2.96-0.27,6.81-2.4,9.03,1.74c0.66,1.24,1.46,1.91,2.8,1.47c1.84-0.62,1.36-2.25,1.07-3.45c-0.58-2.35-2.33-3.61-4.65-4.21
			c-9.83-2.56-14.25,0.77-14.26,10.79C173.97,132.91,173.97,133.93,173.97,134.95z M196.91,135.1c0,3.4,0.06,6.8-0.02,10.19
			c-0.06,2.32,0.82,3.49,3.24,3.47c4.25-0.05,8.49,0,12.74-0.02c1.47,0,2.89-0.37,2.9-2.12c0.01-1.73-1.48-2.16-2.88-2.22
			c-2.54-0.1-5.1-0.19-7.64-0.03c-3.1,0.2-4.08-1.06-4.2-4.14c-0.13-3.3,1.45-3.52,3.97-3.38c2.71,0.15,5.43,0.01,8.15,0.04
			c1.32,0.01,2.46-0.33,2.57-1.81c0.14-1.77-1.05-2.32-2.61-2.32c-2.89,0-5.78-0.07-8.66,0.02c-2.07,0.06-3.53-0.02-3.42-2.86
			c0.09-2.49,0.58-3.94,3.38-3.68c2.88,0.26,5.51-1.5,8.47-1.06c1.42,0.21,2.88-0.37,2.86-2.11c-0.02-1.72-1.44-2.14-2.9-2.16
			c-3.91-0.04-7.82,0.09-11.72-0.1c-3.45-0.16-4.45,1.44-4.27,4.62C197.05,128.63,196.9,131.87,196.91,135.1z M128.64,135.12
			c0,3.39,0.05,6.79-0.02,10.18c-0.04,1.99,0.55,3.37,2.76,3.4c4.58,0.05,9.16,0.03,13.75,0.02c1.34-0.01,2.44-0.66,2.51-2.01
			c0.08-1.38-1.05-2.14-2.32-2.21c-2.71-0.14-5.44-0.3-8.14-0.1c-3.35,0.25-4.35-1.05-4.46-4.36c-0.12-3.61,1.95-3.18,4.16-3.15
			c2.71,0.03,5.43-0.02,8.15,0c1.33,0.01,2.52-0.45,2.61-1.8c0.11-1.63-1.06-2.32-2.66-2.32c-2.88,0.01-5.77-0.03-8.65-0.01
			c-1.87,0.01-3.62,0.4-3.59-2.66c0.02-2.85,0.88-3.86,3.73-3.92c2.97-0.07,6.06,0.88,8.94-0.83c1.04-0.62,2.42-0.97,2.23-2.37
			c-0.21-1.57-1.57-2.1-3.05-2.11c-3.9-0.02-7.81,0.1-11.71-0.05c-3.41-0.13-4.45,1.45-4.27,4.64
			C128.8,128.66,128.65,131.89,128.64,135.12z M155.45,132.82c0.46-0.14,0.92-0.28,1.37-0.42c2.89,4.6,5.78,9.21,8.68,13.81
			c0.82,1.31,1.7,2.74,3.57,2.16c1.71-0.54,1.36-2.12,1.36-3.44c0.01-6.78,0-13.57,0.01-20.35c0-1.59,0.01-3.34-2.13-3.3
			c-2.26,0.04-1.89,1.98-1.9,3.44c-0.04,4.46-0.01,8.91-0.01,13.37c-3.98-4.83-7.08-9.82-10.2-14.79c-0.72-1.15-1.5-2.41-3.16-2
			c-1.7,0.42-1.74,1.84-1.73,3.25c0.01,6.95,0.02,13.91,0.01,20.86c0,1.47,0.27,2.92,1.96,3.04c2.22,0.16,2.18-1.61,2.18-3.17
			C155.45,141.11,155.45,136.97,155.45,132.82z M86.11,95.76c0,2.21-0.07,4.43,0.01,6.63c0.18,5.04,2.12,6.87,7.27,6.96
			c1.53,0.03,3.06,0.03,4.59,0c6.15-0.15,7.08-2.08,7.32-11.12c0.17-6.33-4.09-4.42-7.26-4.61c-1.54-0.09-3.92-0.71-4.11,1.72
			c-0.17,2.3,1.43,3.66,3.9,3.45c2.16-0.18,3.49,0.15,3.37,2.91c-0.12,2.63-1.05,3.83-3.67,3.5c-2.72-0.35-6.66,1.52-7.16-3.22
			c-0.37-3.53-0.17-7.14-0.04-10.71c0.07-1.88-0.94-4.92,1.76-5.13c2.98-0.23,6.85-2.21,9,1.95c0.63,1.22,1.34,2.03,2.74,1.5
			c1.71-0.64,1.55-2.15,1.11-3.44c-0.83-2.42-2.58-3.91-5.16-4.37C89.33,79.93,86.1,82.62,86.1,93.21
			C86.1,94.06,86.1,94.91,86.11,95.76z M15.06,134.92c0,2.55,0.01,5.1,0,7.65c-0.02,4.41,3.24,6.17,6.57,7.1
			c4.28,1.19,10.95-1.77,11.95-4.7c0.43-1.27,0.87-2.83-0.43-3.77c-1.02-0.74-2.1-0.32-3.15,0.63c-2.82,2.56-6.8,2.43-9.81,1.87
			c-2.11-0.39-0.63-4.51-0.87-6.95c-0.2-2.02-0.24-4.1,0.02-6.11c0.23-1.8-1.4-4.87,1.49-5.1c2.96-0.24,6.81-2.39,9,1.76
			c0.66,1.26,1.46,1.91,2.79,1.48c1.83-0.59,1.39-2.16,1.11-3.42c-0.43-1.94-1.75-3.18-3.63-3.92c-9.04-3.55-15.05,0.4-15.05,9.91
			C15.06,132.54,15.06,133.73,15.06,134.92z M37.88,134.5c0,2.72-0.25,5.46,0.08,8.14c0.25,2.01-1.75,5.72,1.94,5.65
			c3.48-0.07,2.07-3.83,1.87-5.8c-0.47-4.66,1.11-6.13,5.77-5.77c3.55,0.27,5.49,1.12,5.08,5.02c-0.16,1.51-0.05,3.06,0.04,4.58
			c0.06,1.08,0.58,2.04,1.75,2.19c1.48,0.2,2.35-0.88,2.36-2.08c0.07-7.8,0.03-15.6-0.07-23.41c-0.01-1.05-0.93-1.93-2.05-1.9
			c-1.12,0.03-1.89,0.91-1.95,2.01c-0.12,2.37-0.13,4.75-0.09,7.12c0.03,1.58-0.35,2.32-2.2,2.57c-7.54,1.03-8.4,0.42-8.53-6.87
			c-0.01-0.51-0.01-1.02-0.01-1.53c0.01-1.61-0.08-3.28-2.25-3.17c-1.92,0.09-1.73,1.7-1.73,3.06
			C37.88,127.71,37.88,131.11,37.88,134.5z M79.59,139.46c1.28-6.08-2.98-11.2-5.57-16.77c-1.19-2.57-6.33-2.8-7.88-0.43
			c-4.77,7.28-6.84,15.3-5.72,24.03c0.15,1.15,0.7,1.89,1.77,2.18c0.93,0.25,1.91-0.24,2-1.05c0.68-6.58,5.82-3.92,9.33-4.53
			c0.99-0.17,1.97,0.02,2.01,1.54c0.04,1.67-0.73,4.33,2.24,3.94c2.58-0.34,1.65-2.89,1.8-4.62
			C79.67,142.58,79.59,141.39,79.59,139.46z M109.51,95.61c0,3.06-0.07,6.12,0.03,9.17c0.06,1.74-0.58,4.33,2.11,4.38
			c2.99,0.06,1.88-2.68,1.93-4.28c0.24-6.91,0.17-6.91,6.91-7.12c5.58-0.18,8.22-2.79,8.19-8.08c-0.03-5.01-2.68-7.9-7.88-7.9
			c-13.2,0-11.09-1.64-11.28,10.78C109.51,93.57,109.52,94.59,109.51,95.61z M83.1,134.91c0,3.39,0.04,6.78-0.01,10.16
			c-0.04,2.18,0.64,3.66,3.1,3.66c4.4,0,8.81,0.03,13.21-0.03c1.41-0.02,2.81-0.39,2.71-2.25c-0.08-1.52-1.35-1.92-2.53-1.97
			c-2.7-0.13-5.43-0.29-8.12-0.05c-3.04,0.27-4.18-0.59-4-3.85c0.29-5.4,0.09-10.84,0.06-16.26c-0.01-1.63-0.44-3.24-2.43-3.12
			c-1.68,0.1-1.96,1.61-1.96,3.05C83.1,127.8,83.11,131.35,83.1,134.91z M105.94,134.63c0,3.56,0.02,7.11-0.01,10.67
			c-0.02,1.91,0.44,3.42,2.71,3.43c4.57,0.02,9.15,0.03,13.72-0.03c1.27-0.01,2.4-0.54,2.47-2.01c0.06-1.48-1.07-2.11-2.31-2.18
			c-2.7-0.15-5.45-0.42-8.11-0.1c-3.75,0.45-4.53-1.07-4.33-4.5c0.29-5.06,0.06-10.16,0.08-15.24c0.01-1.59-0.03-3.34-2.05-3.45
			c-2.15-0.12-2.16,1.7-2.17,3.25C105.92,127.85,105.93,131.24,105.94,134.63z M64.3,95.76c0,3.56,0.03,7.11-0.01,10.67
			c-0.02,1.8,0.52,2.94,2.55,2.93c4.57-0.02,9.14,0.01,13.72,0c1.27,0,2.43-0.29,2.42-1.88c-0.01-1.45-0.94-2.12-2.3-2.14
			c-2.37-0.04-4.77-0.25-7.1,0.04c-4.01,0.5-5.76-0.52-5.33-5.04c0.48-5.03,0.1-10.15,0.11-15.23c0-1.65-0.3-3.3-2.32-3.16
			c-1.73,0.12-1.74,1.77-1.74,3.16C64.3,88.64,64.3,92.2,64.3,95.76z M139.85,95.66c0,3.57,0.01,7.14,0,10.7
			c0,1.75,0.52,3.08,2.56,2.96c1.6-0.09,3.67,0.85,4.61-1.07c0.91-1.86-0.49-2.6-2.15-3.15c-1.46-0.48-0.89-1.98-0.92-3.06
			c-0.07-2.89-0.27-5.8,0.04-8.66c0.32-2.89-1.95-6.66,2.82-8.35c1.2-0.43,0.61-2.44-0.95-3.14c-3.22-1.45-5.92,0.35-6,4.08
			C139.78,89.2,139.84,92.43,139.85,95.66z M166.56,95.88c0-3.55-0.03-7.1,0.01-10.65c0.02-1.86-0.23-3.5-2.58-3.46
			c-1.6,0.03-3.62-0.7-4.5,1.32c-0.89,2.05,0.66,2.44,2.26,2.95c1.11,0.35,0.71,1.72,0.72,2.68c0.04,2.87,0.3,5.78-0.06,8.61
			c-0.39,3.08,2.09,7.13-2.76,9c-0.7,0.27-0.76,1.94,0.34,2.58c1.55,0.89,3.31,0.55,4.95,0.33c1.85-0.25,1.59-1.89,1.6-3.21
			C166.59,102.65,166.57,99.27,166.56,95.88z"/>
		<path class="st1" d="M173.97,134.95c0-1.02,0-2.04,0-3.06c0.01-10.01,4.43-13.34,14.26-10.79c2.32,0.6,4.07,1.86,4.65,4.21
			c0.3,1.2,0.78,2.84-1.07,3.45c-1.34,0.45-2.14-0.23-2.8-1.47c-2.22-4.14-6.07-2.02-9.03-1.74c-2.79,0.26-1.42,3.33-1.52,5.15
			c-0.2,3.56-0.06,7.14-0.05,10.72c0,1.42,0.14,2.93,2.02,2.88c2.79-0.07,6.07,1.03,8.01-1.74c0.82-1.17,0.76-3.4,0.28-4.89
			c-0.48-1.53-2.39-0.65-3.66-0.77c-1.51-0.15-3.36,0.15-3.25-2.15c0.1-2.19,2.05-2.32,3.42-1.95c2.72,0.75,7.35-2.75,7.83,3.31
			c0.75,9.55-1.34,13.28-7.69,13.67c-8.32,0.51-11.36-2.36-11.4-10.75C173.96,137.68,173.97,136.31,173.97,134.95z"/>
		<path class="st1" d="M196.91,135.1c0-3.23,0.14-6.46-0.04-9.68c-0.18-3.18,0.82-4.78,4.27-4.62c3.9,0.19,7.81,0.05,11.72,0.1
			c1.46,0.02,2.88,0.44,2.9,2.16c0.02,1.74-1.44,2.32-2.86,2.11c-2.96-0.44-5.58,1.32-8.47,1.06c-2.8-0.25-3.29,1.19-3.38,3.68
			c-0.11,2.84,1.35,2.93,3.42,2.86c2.89-0.09,5.78-0.02,8.66-0.02c1.56,0,2.75,0.54,2.61,2.32c-0.12,1.48-1.26,1.82-2.57,1.81
			c-2.72-0.02-5.44,0.11-8.15-0.04c-2.52-0.14-4.1,0.08-3.97,3.38c0.12,3.08,1.11,4.34,4.2,4.14c2.54-0.16,5.1-0.07,7.64,0.03
			c1.41,0.06,2.89,0.49,2.88,2.22c-0.01,1.75-1.43,2.11-2.9,2.12c-4.25,0.01-8.49-0.03-12.74,0.02c-2.42,0.03-3.3-1.15-3.24-3.47
			C196.97,141.9,196.91,138.5,196.91,135.1z"/>
		<path class="st1" d="M128.64,135.12c0.01-3.22,0.16-6.46-0.04-9.67c-0.19-3.19,0.86-4.77,4.27-4.64c3.9,0.15,7.81,0.03,11.71,0.05
			c1.49,0.01,2.84,0.54,3.05,2.11c0.19,1.4-1.2,1.76-2.23,2.37c-2.88,1.71-5.97,0.76-8.94,0.83c-2.85,0.07-3.71,1.07-3.73,3.92
			c-0.03,3.06,1.73,2.67,3.59,2.66c2.88-0.02,5.77,0.02,8.65,0.01c1.6-0.01,2.76,0.68,2.66,2.32c-0.09,1.35-1.28,1.81-2.61,1.8
			c-2.72-0.02-5.43,0.03-8.15,0c-2.22-0.03-4.28-0.46-4.16,3.15c0.11,3.31,1.12,4.61,4.46,4.36c2.7-0.2,5.43-0.04,8.14,0.1
			c1.27,0.07,2.39,0.83,2.32,2.21c-0.08,1.35-1.18,2.01-2.51,2.01c-4.58,0.02-9.16,0.03-13.75-0.02c-2.21-0.02-2.8-1.4-2.76-3.4
			C128.69,141.91,128.64,138.51,128.64,135.12z"/>
		<path class="st2" d="M155.45,132.82c0,4.15,0,8.3,0,12.45c0,1.56,0.04,3.33-2.18,3.17c-1.69-0.12-1.96-1.57-1.96-3.04
			c0.01-6.95,0-13.91-0.01-20.86c0-1.4,0.04-2.83,1.73-3.25c1.66-0.41,2.44,0.85,3.16,2c3.12,4.97,6.21,9.96,10.2,14.79
			c0-4.46-0.02-8.91,0.01-13.37c0.01-1.46-0.36-3.4,1.9-3.44c2.14-0.04,2.13,1.71,2.13,3.3c-0.01,6.78,0,13.57-0.01,20.35
			c0,1.32,0.35,2.91-1.36,3.44c-1.87,0.58-2.74-0.85-3.57-2.16c-2.9-4.6-5.79-9.2-8.68-13.81
			C156.36,132.54,155.9,132.68,155.45,132.82z"/>
		<path class="st2" d="M86.11,95.76c-0.01-0.85-0.01-1.7-0.01-2.55c0-10.58,3.23-13.28,13.67-11.41c2.58,0.46,4.33,1.94,5.16,4.37
			c0.44,1.29,0.6,2.8-1.11,3.44c-1.39,0.52-2.11-0.29-2.74-1.5c-2.14-4.15-6.02-2.17-9-1.95c-2.7,0.2-1.69,3.25-1.76,5.13
			c-0.13,3.57-0.33,7.17,0.04,10.71c0.5,4.73,4.44,2.87,7.16,3.22c2.62,0.34,3.55-0.87,3.67-3.5c0.12-2.76-1.21-3.09-3.37-2.91
			c-2.47,0.21-4.07-1.15-3.9-3.45c0.18-2.43,2.56-1.82,4.11-1.72c3.17,0.19,7.43-1.72,7.26,4.61c-0.24,9.04-1.17,10.97-7.32,11.12
			c-1.53,0.04-3.06,0.03-4.59,0c-5.16-0.1-7.09-1.92-7.27-6.96C86.04,100.18,86.11,97.97,86.11,95.76z"/>
		<path class="st1" d="M15.06,134.92c0-1.19,0-2.38,0-3.57c0-9.52,6.01-13.46,15.05-9.91c1.88,0.74,3.19,1.97,3.63,3.92
			c0.28,1.26,0.72,2.83-1.11,3.42c-1.34,0.43-2.13-0.22-2.79-1.48c-2.19-4.15-6.04-2-9-1.76c-2.89,0.23-1.26,3.31-1.49,5.1
			c-0.26,2.01-0.22,4.09-0.02,6.11c0.24,2.44-1.24,6.56,0.87,6.95c3.01,0.56,6.99,0.69,9.81-1.87c1.05-0.95,2.14-1.38,3.15-0.63
			c1.29,0.94,0.86,2.5,0.43,3.77c-1,2.94-7.68,5.89-11.95,4.7c-3.33-0.92-6.59-2.69-6.57-7.1
			C15.08,140.02,15.06,137.47,15.06,134.92z"/>
		<path class="st2" d="M37.88,134.5c0-3.4,0-6.79,0-10.19c0-1.36-0.19-2.96,1.73-3.06c2.17-0.11,2.26,1.57,2.25,3.17
			c0,0.51,0,1.02,0.01,1.53c0.13,7.29,0.99,7.9,8.53,6.87c1.84-0.25,2.23-0.99,2.2-2.57c-0.04-2.37-0.03-4.75,0.09-7.12
			c0.06-1.11,0.82-1.98,1.95-2.01c1.12-0.03,2.04,0.84,2.05,1.9c0.11,7.8,0.15,15.6,0.07,23.41c-0.01,1.2-0.89,2.28-2.36,2.08
			c-1.17-0.16-1.68-1.11-1.75-2.19c-0.09-1.52-0.19-3.07-0.04-4.58c0.41-3.9-1.53-4.75-5.08-5.02c-4.66-0.36-6.24,1.11-5.77,5.77
			c0.2,1.97,1.61,5.73-1.87,5.8c-3.69,0.07-1.7-3.64-1.94-5.65C37.63,139.97,37.88,137.22,37.88,134.5z"/>
		<path class="st2" d="M79.59,139.46c0,1.92,0.08,3.11-0.02,4.29c-0.15,1.73,0.78,4.28-1.8,4.62c-2.97,0.39-2.2-2.27-2.24-3.94
			c-0.04-1.51-1.02-1.71-2.01-1.54c-3.51,0.61-8.64-2.05-9.33,4.53c-0.08,0.81-1.07,1.3-2,1.05c-1.07-0.29-1.63-1.03-1.77-2.18
			c-1.12-8.74,0.95-16.75,5.72-24.03c1.55-2.37,6.69-2.14,7.88,0.43C76.6,128.26,80.86,133.38,79.59,139.46z M70,138.94
			c1.68-1.31,5.08,1.78,5.47-2.45c0.2-2.17-4.17-11-5.34-11.04c-1.3-0.04-5.72,8.45-5.57,10.88C64.82,140.58,68.23,137.76,70,138.94
			z"/>
		<path class="st2" d="M109.51,95.61c0-1.02-0.01-2.04,0.01-3.06c0.19-12.42-1.92-10.78,11.28-10.78c5.2,0,7.85,2.89,7.88,7.9
			c0.03,5.3-2.61,7.91-8.19,8.08c-6.73,0.21-6.67,0.21-6.91,7.12c-0.06,1.6,1.06,4.34-1.93,4.28c-2.69-0.05-2.05-2.65-2.11-4.38
			C109.44,101.73,109.51,98.67,109.51,95.61z M118.34,93.55c2.71-0.18,6.24,0.83,6.24-3.74c0-4.88-3.78-3.63-6.64-3.99
			c-3.18-0.4-4.39,0.51-4.44,4.03C113.44,93.87,115.58,93.8,118.34,93.55z"/>
		<path class="st1" d="M83.1,134.91c0-3.56,0-7.11,0.01-10.67c0-1.44,0.28-2.95,1.96-3.05c1.99-0.12,2.43,1.49,2.43,3.12
			c0.03,5.42,0.23,10.85-0.06,16.26c-0.17,3.26,0.96,4.12,4,3.85c2.69-0.24,5.42-0.08,8.12,0.05c1.18,0.06,2.45,0.46,2.53,1.97
			c0.1,1.86-1.3,2.23-2.71,2.25c-4.4,0.07-8.81,0.03-13.21,0.03c-2.46,0-3.14-1.48-3.1-3.66C83.14,141.68,83.1,138.3,83.1,134.91z"
			/>
		<path class="st1" d="M105.94,134.63c0-3.39-0.02-6.77,0-10.16c0.01-1.55,0.02-3.37,2.17-3.25c2.02,0.11,2.06,1.86,2.05,3.45
			c-0.02,5.08,0.21,10.17-0.08,15.24c-0.2,3.43,0.58,4.95,4.33,4.5c2.66-0.32,5.41-0.05,8.11,0.1c1.24,0.07,2.37,0.7,2.31,2.18
			c-0.06,1.47-1.19,2-2.47,2.01c-4.57,0.05-9.14,0.05-13.72,0.03c-2.28-0.01-2.73-1.52-2.71-3.43
			C105.96,141.74,105.94,138.18,105.94,134.63z"/>
		<path class="st2" d="M64.3,95.76c0-3.56,0-7.11,0-10.67c0-1.38,0.01-3.04,1.74-3.16c2.02-0.14,2.32,1.51,2.32,3.16
			c-0.01,5.08,0.37,10.2-0.11,15.23c-0.43,4.52,1.32,5.54,5.33,5.04c2.33-0.29,4.73-0.08,7.1-0.04c1.36,0.02,2.29,0.69,2.3,2.14
			c0.01,1.6-1.16,1.88-2.42,1.88c-4.57,0.01-9.14-0.02-13.72,0c-2.03,0.01-2.58-1.13-2.55-2.93C64.33,102.87,64.3,99.31,64.3,95.76z
			"/>
		<path class="st2" d="M139.84,95.66c0-3.23-0.06-6.46,0.01-9.68c0.08-3.73,2.79-5.53,6-4.08c1.56,0.71,2.15,2.71,0.95,3.14
			c-4.77,1.69-2.5,5.46-2.82,8.35c-0.31,2.85-0.12,5.77-0.04,8.66c0.03,1.08-0.55,2.58,0.92,3.06c1.66,0.55,3.06,1.29,2.15,3.15
			c-0.94,1.92-3.01,0.97-4.61,1.07c-2.04,0.12-2.57-1.22-2.56-2.96C139.85,102.79,139.85,99.22,139.84,95.66z"/>
		<path class="st2" d="M166.57,95.88c0,3.38,0.02,6.76-0.01,10.14c-0.01,1.31,0.25,2.96-1.6,3.21c-1.64,0.22-3.4,0.55-4.95-0.33
			c-1.1-0.63-1.05-2.31-0.34-2.58c4.85-1.87,2.36-5.92,2.76-9c0.36-2.83,0.1-5.74,0.06-8.61c-0.01-0.95,0.38-2.32-0.72-2.68
			c-1.6-0.51-3.15-0.9-2.26-2.95c0.87-2.01,2.9-1.29,4.5-1.32c2.35-0.04,2.6,1.6,2.58,3.46C166.54,88.78,166.56,92.33,166.57,95.88z
			"/>
		<path class="st0" d="M70,138.94c-1.78-1.18-5.18,1.64-5.45-2.61c-0.15-2.42,4.27-10.92,5.57-10.88c1.17,0.04,5.54,8.87,5.34,11.04
			C75.08,140.71,71.68,137.63,70,138.94z"/>
		<path class="st0" d="M118.34,93.55c-2.76,0.25-4.9,0.32-4.84-3.71c0.05-3.52,1.26-4.43,4.44-4.03c2.86,0.36,6.64-0.89,6.64,3.99
			C124.58,94.39,121.04,93.38,118.34,93.55z"/>
	</g>
</g>
</svg>
